<svg width="18" height="18" viewBox="0 0 18 18" fill="none" xmlns="http://www.w3.org/2000/svg">
<path d="M14.3067 11.1289C14.6967 10.2839 14.8917 9.38111 14.8917 8.44222C14.8917 4.88889 12.0028 2 8.44944 2C4.89611 2 2 4.88889 2 8.44944C2 12.01 4.88889 14.8989 8.44944 14.8989C9.40278 14.8989 10.3128 14.6967 11.1578 14.2994L15 15.0072L14.3067 11.1361V11.1289ZM13.7506 13.7433L11.0856 13.2522L11.0061 13.2378L10.84 13.3172C10.1033 13.6856 9.29444 13.8733 8.44944 13.8733C5.45222 13.8733 3.01833 11.4394 3.01833 8.44222C3.01833 6.99778 3.58167 5.63278 4.60722 4.60722C5.63278 3.57444 6.99778 3.01111 8.44944 3.01111C11.4467 3.01111 13.8806 5.45222 13.8806 8.44222C13.8806 9.28 13.7 10.0744 13.3389 10.8111L13.2522 10.9772L13.7506 13.7361V13.7433ZM5.81333 10.71C5.90722 10.7533 6.00111 10.775 6.10944 10.775C6.21778 10.775 6.30444 10.7317 6.40556 10.6522C6.50667 10.5728 6.55 10.4283 6.55 10.2261V5.445H7.53944V10.4211C7.53944 10.6306 7.50333 10.8039 7.43833 10.9483C7.37333 11.0928 7.27222 11.2156 7.14944 11.3094C7.02667 11.4033 6.88222 11.4756 6.71611 11.5189C6.55 11.5622 6.37667 11.5839 6.18889 11.5839C6.03722 11.5839 5.88556 11.5622 5.74111 11.5261C5.59667 11.49 5.47389 11.4394 5.35833 11.3889C5.24278 11.3383 5.15611 11.2806 5.08389 11.23L5.58944 10.5511C5.65444 10.6161 5.72667 10.6739 5.82056 10.71H5.81333ZM10.255 7.86444C10.3706 7.73444 10.4717 7.61889 10.5583 7.51056C10.6378 7.40222 10.7028 7.29389 10.7461 7.17833C10.7894 7.06278 10.8111 6.95444 10.8111 6.83889C10.8111 6.75222 10.7967 6.67278 10.7678 6.59333C10.7389 6.51389 10.6883 6.44167 10.6306 6.38389C10.5728 6.32611 10.4933 6.27556 10.4067 6.23222C10.32 6.18889 10.2189 6.17444 10.1033 6.17444C9.94444 6.17444 9.8 6.21056 9.68444 6.29C9.56889 6.36944 9.48222 6.47778 9.41722 6.615C9.35222 6.75944 9.32333 6.91833 9.32333 7.09889H8.39889C8.39889 6.76667 8.46389 6.47056 8.59389 6.21056C8.72389 5.95056 8.91889 5.74111 9.17889 5.58222C9.43889 5.42333 9.74944 5.35111 10.125 5.35111C10.3994 5.35111 10.645 5.39444 10.8544 5.48111C11.0639 5.56778 11.2372 5.67611 11.3744 5.82056C11.5117 5.95778 11.6128 6.10944 11.685 6.27556C11.75 6.44167 11.7861 6.60778 11.7861 6.77389C11.7861 7.01944 11.7283 7.25056 11.6056 7.46722C11.49 7.68389 11.3311 7.87889 11.1361 8.05222L9.93722 9.18611H11.8656V10.0456H8.16056L10.255 7.85722V7.86444Z" fill="black"/>
</svg>
