<svg width="18" height="18" viewBox="0 0 18 18" fill="none" xmlns="http://www.w3.org/2000/svg">
<path d="M9.81618 7.73988L8.18182 7.19442V4.83079L9.81818 5.31564L9.81618 7.73988Z" fill="#F8991B"/>
<path d="M10.2424 5.31564L11.8788 4.83079L11.8731 7.19279L10.2424 7.73988V5.31564Z" fill="#F8991B"/>
<path d="M11.5455 4.57485L10.0204 4.10352L8.51515 4.57485L10.0225 4.97891L11.5455 4.57485Z" fill="#F8991B"/>
<path d="M13.9374 7.73988L12.303 7.19442V4.83079L13.9394 5.31564L13.9374 7.73988Z" fill="#F8991B"/>
<path d="M14.3636 5.31564L16 4.83079L15.9943 7.19279L14.3636 7.73988V5.31564Z" fill="#F8991B"/>
<path d="M15.6667 4.57485L14.1416 4.10352L12.6364 4.57485L14.1438 4.97891L15.6667 4.57485Z" fill="#F8991B"/>
<path d="M3.63636 8.77018L2 8.28533V10.649L3.63438 11.1944L3.63636 8.77018Z" fill="#F8991B"/>
<path d="M4.06061 8.77018L5.69697 8.28533L5.69129 10.6474L4.06061 11.1944V8.77018Z" fill="#F8991B"/>
<path d="M5.36364 8.02939L3.83854 7.55806L2.33333 8.02939L3.84075 8.43345L5.36364 8.02939Z" fill="#F8991B"/>
<path d="M7.75559 11.1944L6.12121 10.649V8.28533L7.75758 8.77018L7.75559 11.1944Z" fill="#F8991B"/>
<path d="M8.18182 8.77018L9.81818 8.28533L9.81248 10.6474L8.18182 11.1944V8.77018Z" fill="#F8991B"/>
<path d="M9.48485 8.02939L7.95975 7.55806L6.45455 8.02939L7.96196 8.43345L9.48485 8.02939Z" fill="#F8991B"/>
<path d="M5.69498 14.649L4.06061 14.1035V11.7399L5.69697 12.2247L5.69498 14.649Z" fill="#F8991B"/>
<path d="M6.12121 12.2247L7.75758 11.7399L7.7519 14.1019L6.12121 14.649V12.2247Z" fill="#F8991B"/>
<path d="M7.42424 11.4839L5.89915 11.0126L4.39394 11.4839L5.90135 11.888L7.42424 11.4839Z" fill="#F8991B"/>
</svg>
