<svg width="18" height="18" viewBox="0 0 18 18" fill="none" xmlns="http://www.w3.org/2000/svg">
<path fill-rule="evenodd" clip-rule="evenodd" d="M6.98328 10.1443C7.30626 10.1443 7.94917 10.127 8.83661 9.76125C9.87178 9.33536 11.9309 8.56203 13.4154 7.76731C14.4547 7.21202 14.9091 6.4764 14.9091 5.48707C14.9091 4.11363 13.7955 3 12.422 3H6.66641C4.69285 3 3.09424 4.59963 3.09424 6.57217C3.09424 8.54471 4.593 10.1443 6.98328 10.1443Z" fill="#39594D"/>
<path fill-rule="evenodd" clip-rule="evenodd" d="M7.77002 12.6066C7.77002 11.6397 8.3518 10.7676 9.24535 10.3967L11.0579 9.64478C12.8909 8.88368 14.9093 10.2316 14.9093 12.2164C14.9093 13.7539 13.6622 15.001 12.1247 15H10.1623C8.84086 14.999 7.77002 13.9281 7.77002 12.6066Z" fill="#D18EE2"/>
<path d="M5.15533 10.6147C4.01827 10.6147 3.09619 11.5368 3.09619 12.6739V12.9408C3.09619 14.0779 4.01827 15 5.15533 15C6.2924 15 7.21448 14.0779 7.21448 12.9408V12.6739C7.21448 11.5368 6.2924 10.6147 5.15533 10.6147Z" fill="#FF7759"/>
</svg>
