<svg xmlns="http://www.w3.org/2000/svg" width="18" height="18" viewBox="0 0 18 18" fill="none">
  <path d="M15.8531 4.71334C15.7048 4.64068 15.641 4.77915 15.5543 4.8495C15.5246 4.87219 15.4995 4.90168 15.4744 4.92891C15.2576 5.16037 15.0044 5.31247 14.6736 5.29429C14.1899 5.26704 13.777 5.41914 13.4119 5.78908C13.3343 5.3329 13.0765 5.06051 12.6841 4.88579C12.4788 4.79499 12.2712 4.7042 12.1274 4.50674C12.027 4.36607 11.9997 4.20946 11.9495 4.05512C11.9175 3.96208 11.8856 3.86673 11.7783 3.85083C11.662 3.8327 11.6163 3.93025 11.5707 4.012C11.3882 4.34564 11.3175 4.71331 11.3243 5.08552C11.3403 5.92302 11.6939 6.59023 12.3966 7.06459C12.4765 7.11907 12.497 7.1735 12.4719 7.25298C12.424 7.41639 12.3669 7.57524 12.3168 7.73865C12.2848 7.84308 12.2369 7.86577 12.1251 7.82033C11.7395 7.65924 11.4064 7.4209 11.1121 7.13269C10.6124 6.64927 10.1607 6.11592 9.59719 5.6983C9.46486 5.60071 9.33252 5.50996 9.19561 5.42367C8.62067 4.86539 9.27092 4.4069 9.4215 4.35247C9.5789 4.29572 9.47625 4.10051 8.96746 4.10282C8.45868 4.10506 7.99326 4.2753 7.40008 4.50225C7.31339 4.5363 7.2221 4.56124 7.12856 4.58167C6.59013 4.47956 6.03115 4.45682 5.44709 4.52268C4.34739 4.64521 3.46904 5.16496 2.82337 6.05237C2.04768 7.11907 1.86516 8.33099 2.08876 9.59517C2.32376 10.9274 3.00362 12.0304 4.04857 12.8929C5.1323 13.787 6.38029 14.2251 7.80394 14.1411C8.66864 14.0912 9.63144 13.9755 10.7174 13.0563C10.9912 13.1925 11.2787 13.2469 11.7555 13.2877C12.1229 13.3218 12.4765 13.2696 12.7503 13.2129C13.1792 13.1221 13.1495 12.7249 12.9944 12.6523C11.7373 12.0668 12.0133 12.305 11.7624 12.1121C12.4012 11.3564 13.364 10.5711 13.7405 8.02686C13.7701 7.82489 13.745 7.69778 13.7405 7.53437C13.7382 7.43453 13.761 7.39597 13.8751 7.38458C14.1899 7.34826 14.4956 7.26205 14.7763 7.10771C15.5908 6.66289 15.9193 5.93208 15.9969 5.05603C16.0083 4.92211 15.9946 4.78364 15.8531 4.71334ZM8.75533 12.5978C7.53701 11.6401 6.94612 11.3246 6.70198 11.3382C6.47383 11.3518 6.5149 11.6128 6.56507 11.7831C6.61756 11.951 6.68601 12.0668 6.78181 12.2142C6.84798 12.3118 6.89364 12.4571 6.71568 12.5661C6.32325 12.8089 5.64106 12.4843 5.6091 12.4685C4.81517 12.0009 4.15125 11.3836 3.68351 10.5393C3.23177 9.72677 2.96942 8.85529 2.92605 7.92476C2.91464 7.70009 2.98081 7.6206 3.2044 7.5798C3.49871 7.52532 3.80216 7.51394 4.09647 7.55706C5.33993 7.73865 6.39853 8.29469 7.28602 9.17528C7.79251 9.67685 8.1758 10.2761 8.57052 10.8616C8.99031 11.4834 9.44205 12.0758 10.017 12.5615C10.22 12.7317 10.382 12.8611 10.5372 12.9564C10.0695 13.0086 9.2892 13.02 8.75533 12.5978ZM9.33939 8.84167C9.33939 8.7418 9.41926 8.66239 9.51967 8.66239C9.54248 8.66239 9.56301 8.66687 9.58127 8.67367C9.60638 8.68279 9.6292 8.69642 9.64743 8.71679C9.67939 8.7486 9.69762 8.79396 9.69762 8.84164C9.69762 8.9415 9.61779 9.02092 9.51743 9.02092C9.41706 9.02092 9.33939 8.94153 9.33939 8.84167ZM11.1532 9.7722C11.0369 9.81988 10.9205 9.86068 10.8087 9.86524C10.6353 9.87431 10.4459 9.80394 10.3433 9.7177C10.1836 9.58378 10.0695 9.50893 10.0216 9.27515C10.0011 9.17528 10.0125 9.02094 10.0307 8.93246C10.0718 8.7418 10.0262 8.61927 9.89157 8.50802C9.78204 8.41722 9.64287 8.39229 9.49 8.39229C9.43296 8.39229 9.38052 8.3673 9.34171 8.34688C9.27782 8.31512 9.22538 8.23568 9.27555 8.13808C9.29152 8.10635 9.36911 8.02915 9.38737 8.01555C9.59499 7.8975 9.83455 7.93611 10.0559 8.02462C10.2612 8.10859 10.4164 8.26293 10.6399 8.48079C10.8681 8.74404 10.9091 8.81673 11.0392 9.01414C11.1419 9.16848 11.2354 9.32733 11.2993 9.50893C11.3381 9.62242 11.2878 9.71546 11.1532 9.7722Z" fill="#4D6BFE"/>
</svg>
