<svg width="18" height="18" viewBox="0 0 18 18" fill="none" xmlns="http://www.w3.org/2000/svg">
<path d="M6.32295 13.6434C4.8494 14.1314 3.60068 13.8265 2.85004 12.4185C2.14604 11.1042 2.54952 9.94525 3.6526 8.98297C2.99568 8.49017 2.61068 7.83766 2.53544 7.02586C2.48836 6.50006 2.57768 5.98878 2.85444 5.53338C3.68032 4.18654 4.86788 3.87678 6.31811 4.3555C6.59047 2.94267 7.40227 2.01339 8.87583 1.96191C10.4717 1.90559 11.3728 2.83003 11.687 4.3555C13.0809 3.8957 14.2966 4.13946 15.071 5.43966C15.8736 6.7865 15.5027 7.99297 14.3529 9.01597C15.0521 9.54177 15.4371 10.2409 15.4745 11.1139C15.4978 11.6582 15.3478 12.1699 15.0569 12.6345C14.6957 13.1977 14.1888 13.573 13.5552 13.7609C12.9265 13.9488 12.3021 13.8925 11.6967 13.625C11.3539 15.2252 10.4202 16.1594 8.74911 16.0278C7.33627 15.9152 6.57595 15 6.32251 13.6434H6.32295ZM6.89099 9.00189C6.89099 9.73889 6.89099 10.4754 6.89099 11.2124C6.89099 11.344 6.90507 11.48 6.92839 11.6115C7.16775 12.8836 8.53351 13.6439 9.73954 13.1792C10.5751 12.8602 11.1101 12.081 11.1145 11.1847C11.1145 9.76749 11.1145 8.35465 11.1145 6.93742C11.1145 6.80146 11.1053 6.66066 11.0864 6.52426C10.9597 5.5435 10.1663 4.78758 9.18559 4.7031C7.95139 4.5953 6.89539 5.56682 6.89539 6.81026C6.89055 7.53758 6.89055 8.26973 6.89055 9.00189H6.89099ZM5.20139 6.94138C5.20139 6.94622 5.20139 6.94622 5.20139 6.94138C4.779 6.94138 4.36144 6.94622 3.93904 6.94138C3.81716 6.94138 3.77932 6.98846 3.7934 7.1055C3.87304 7.82358 4.48332 8.37753 5.20139 8.37753C5.87723 8.37269 6.45451 7.88474 6.57199 7.21814C6.61907 6.94138 6.61907 6.94138 6.34187 6.94138C5.95687 6.94138 5.58155 6.94138 5.20139 6.94138ZM12.8231 6.94138C12.4337 6.94138 12.0438 6.94138 11.6544 6.94138C11.3961 6.94138 11.3728 6.97878 11.4243 7.23222C11.5603 7.93138 12.2502 8.49017 13.0527 8.34937C13.6533 8.24597 14.1602 7.70654 14.1981 7.1011C14.2073 6.96514 14.1607 6.93698 14.0383 6.93698C13.6349 6.94622 13.2309 6.94182 12.8226 6.94182L12.8231 6.94138ZM8.97923 12.517C9.33607 12.536 9.74438 12.2073 9.80994 11.8601C9.82886 11.7475 9.79102 11.7052 9.67399 11.7101C9.39239 11.7149 9.10595 11.7101 8.82435 11.7101C8.61799 11.7101 8.41119 11.7101 8.19559 11.7101C8.20483 12.1514 8.55243 12.4937 8.97923 12.5175V12.517ZM7.68387 8.03038C7.94655 8.03038 8.14367 7.82842 8.14367 7.5609C8.13883 7.3167 7.92763 7.09626 7.68827 7.09626C7.43967 7.09142 7.23287 7.3123 7.23287 7.57498C7.23287 7.83766 7.42559 8.03038 7.68387 8.03038ZM9.92258 7.64538C9.88034 7.65022 9.84734 7.70654 9.80994 7.7391C9.84294 7.7721 9.8755 7.82842 9.91334 7.82842C10.1575 7.83766 10.4013 7.83766 10.6455 7.82842C10.6785 7.82842 10.73 7.76726 10.7348 7.72986C10.7348 7.7017 10.6785 7.64538 10.6411 7.64054C10.5236 7.6313 10.4066 7.6357 10.2891 7.6357C10.1672 7.64054 10.0405 7.6357 9.92302 7.64494L9.92258 7.64538Z" fill="#FE5C45"/>
</svg>
