<svg width="18" height="18" viewBox="0 0 18 18" fill="none" xmlns="http://www.w3.org/2000/svg">
<path fill-rule="evenodd" clip-rule="evenodd" d="M3 9.70614C3 9.90106 3.15802 10.0591 3.35294 10.0591C5.13145 10.0591 6.83712 9.35257 8.09472 8.09497C9.35231 6.83738 10.0588 5.13171 10.0588 3.3532C10.0588 3.15828 9.90081 3.00026 9.70588 3.00026C9.51096 3.00026 9.35294 3.15828 9.35294 3.3532C9.35294 4.9445 8.7208 6.47062 7.59558 7.59584C6.47036 8.72106 4.94424 9.3532 3.35294 9.3532C3.15802 9.3532 3 9.51122 3 9.70614ZM3 6.92673C3 7.12165 3.15802 7.27967 3.35294 7.27967C4.39431 7.27967 5.39302 6.86599 6.12938 6.12963C6.86573 5.39328 7.27941 4.39456 7.27941 3.3532C7.27941 3.15828 7.1214 3.00026 6.92647 3.00026C6.73155 3.00026 6.57353 3.15828 6.57353 3.3532C6.57353 4.20735 6.23422 5.02652 5.63024 5.6305C5.02626 6.23448 4.20709 6.57379 3.35294 6.57379C3.15802 6.57379 3 6.7318 3 6.92673ZM3 3.75026C3 4.16447 3.33579 4.50026 3.75 4.50026C4.16421 4.50026 4.5 4.16447 4.5 3.75026C4.5 3.33604 4.16421 3.00026 3.75 3.00026C3.33579 3.00026 3 3.33604 3 3.75026Z" fill="black"/>
<path fill-rule="evenodd" clip-rule="evenodd" d="M15 8.29386C15 8.09894 14.842 7.94092 14.6471 7.94092C12.8685 7.94092 11.1629 8.64743 9.90528 9.90503C8.64769 11.1626 7.94118 12.8683 7.94118 14.6468C7.94118 14.8417 8.09919 14.9997 8.29412 14.9997C8.48904 14.9997 8.64706 14.8417 8.64706 14.6468C8.64706 13.0555 9.2792 11.5294 10.4044 10.4042C11.5296 9.27894 13.0558 8.6468 14.6471 8.6468C14.842 8.6468 15 8.48878 15 8.29386ZM15 11.0733C15 10.8783 14.842 10.7203 14.6471 10.7203C13.6057 10.7203 12.607 11.134 11.8706 11.8704C11.1343 12.6067 10.7206 13.6054 10.7206 14.6468C10.7206 14.8417 10.8786 14.9997 11.0735 14.9997C11.2685 14.9997 11.4265 14.8417 11.4265 14.6468C11.4265 13.7926 11.7658 12.9735 12.3698 12.3695C12.9737 11.7655 13.7929 11.4262 14.6471 11.4262C14.842 11.4262 15 11.2682 15 11.0733ZM15 14.2497C15 13.8355 14.6642 13.4997 14.25 13.4997C13.8358 13.4997 13.5 13.8355 13.5 14.2497C13.5 14.664 13.8358 14.9997 14.25 14.9997C14.6642 14.9997 15 14.664 15 14.2497Z" fill="black"/>
</svg>
