<svg xmlns="http://www.w3.org/2000/svg" width="18" height="18" viewBox="0 0 18 18" fill="none">
  <path d="M7.4047 10.6158L11.5603 7.54456C11.764 7.394 12.0552 7.45272 12.1523 7.68661C12.6632 8.92002 12.4349 10.4023 11.4184 11.42C10.4019 12.4377 8.98757 12.6609 7.69483 12.1526L6.28262 12.8072C8.30815 14.1933 10.7678 13.8505 12.3048 12.3106C13.5239 11.09 13.9015 9.4262 13.5485 7.92582L13.5517 7.92901C13.0397 5.72487 13.6775 4.84385 14.9842 3.0423C15.0151 2.99959 15.046 2.95687 15.0769 2.91309L13.3575 4.63454V4.6292L7.40365 10.6169" fill="black"/>
  <path d="M6.54715 11.3623C5.09332 9.9719 5.34398 7.82007 6.58446 6.5792C7.50175 5.66079 9.00463 5.28596 10.3166 5.837L11.7256 5.18558C11.4718 5.0019 11.1464 4.80434 10.7731 4.66551C9.08571 3.97031 7.06551 4.31631 5.69383 5.68856C4.37442 7.00955 3.9595 9.0407 4.672 10.7739C5.20425 12.0693 4.33175 12.9855 3.45285 13.9103C3.14139 14.2382 2.82887 14.566 2.57715 14.9131L6.54606 11.3634" fill="black"/>
</svg>
