<svg xmlns="http://www.w3.org/2000/svg" width="18" height="18" viewBox="0 0 18 18" fill="none">
  <path fill-rule="evenodd" clip-rule="evenodd" d="M8.92699 10.8492C8.83722 10.8492 8.7161 10.8747 8.61679 10.974C8.52069 11.07 8.49469 11.1859 8.48904 11.2609C8.479 11.3945 8.52362 11.5207 8.54849 11.5849C8.57806 11.6612 8.61406 11.7326 8.64118 11.783V12.6762C8.5597 12.6569 8.49147 12.6331 8.43692 12.6101C8.37592 12.5843 8.33175 12.5596 8.30522 12.5432C8.29198 12.5349 8.28322 12.5289 8.27905 12.5259L8.27679 12.5243C8.12154 12.4021 7.89842 12.4296 7.77632 12.587C7.6532 12.7457 7.67938 12.9762 7.83478 13.1019L7.83583 13.1028L7.837 13.1037L7.83975 13.1059L7.84683 13.1113C7.85225 13.1155 7.85905 13.1205 7.86724 13.1264C7.88361 13.1381 7.90555 13.153 7.93297 13.17C7.98777 13.2039 8.06473 13.2463 8.16303 13.2877C8.36018 13.3708 8.64222 13.4497 9.00016 13.4497C9.3581 13.4497 9.64014 13.3708 9.83728 13.2877C9.93559 13.2463 10.0126 13.2039 10.0673 13.17C10.0948 13.153 10.1167 13.1381 10.1331 13.1264C10.1412 13.1205 10.1481 13.1155 10.1535 13.1113L10.1633 13.1037L10.1645 13.1028C10.3199 12.977 10.3471 12.7457 10.224 12.587C10.1019 12.4296 9.87882 12.4021 9.72354 12.5243L9.71802 12.5265L9.72064 12.5266C9.71615 12.5297 9.70744 12.5355 9.6951 12.5432C9.66857 12.5596 9.6244 12.5843 9.5634 12.6101C9.50884 12.6331 9.44062 12.6569 9.35914 12.6762V11.783C9.38626 11.7326 9.42226 11.6612 9.45183 11.5849C9.4767 11.5207 9.52132 11.3945 9.51127 11.2609C9.50563 11.1859 9.47963 11.07 9.38353 10.974C9.28421 10.8747 9.1631 10.8492 9.07333 10.8492H8.92699Z" fill="black"/>
  <path fill-rule="evenodd" clip-rule="evenodd" d="M12.8046 10.4014H12.9583C13.12 10.4014 13.2618 10.291 13.3045 10.1317L13.6541 8.82868C13.6836 8.71843 13.6611 8.6004 13.5932 8.50953C13.5253 8.41864 13.4198 8.36531 13.3079 8.36531H12.5568L12.5446 8.28855C12.4775 7.87229 12.4029 7.49707 12.319 7.19358C12.2718 7.02276 12.2162 6.85292 12.147 6.70632C12.6576 5.8917 12.6983 4.82872 12.606 3.94266C12.5504 3.40871 12.3755 2.99381 12.1221 2.68097C11.8702 2.36992 11.5569 2.17967 11.2532 2.06651C11.1 2.00943 10.9266 1.9757 10.7534 2.02112C10.5657 2.07034 10.4396 2.19563 10.3605 2.33292C10.2872 2.45997 10.2481 2.60649 10.2224 2.73973C10.1961 2.87663 10.1789 3.03016 10.1635 3.18498C10.1586 3.23485 10.1538 3.28556 10.1488 3.33704C10.0985 3.8636 10.0407 4.46958 9.79272 5.05419C9.6148 5.01448 9.36269 4.97747 9.01533 4.96394C9.01025 4.96374 9.00519 4.96365 9.00016 4.96367C8.99513 4.96365 8.99007 4.96374 8.98499 4.96394C8.63763 4.97747 8.38552 5.01448 8.20761 5.05419C7.95966 4.46958 7.90179 3.8636 7.85151 3.33704C7.84659 3.28556 7.84175 3.23485 7.83681 3.18498C7.82146 3.03016 7.80416 2.87663 7.77785 2.73973C7.75225 2.60649 7.71309 2.45997 7.63986 2.33292C7.56072 2.19563 7.43453 2.07034 7.24691 2.02112C7.07375 1.9757 6.90035 2.00943 6.74713 2.06651C6.44335 2.17967 6.13011 2.36992 5.87821 2.68097C5.62485 2.99381 5.44993 3.40871 5.39429 3.94266C5.30195 4.82872 5.34275 5.8917 5.85333 6.70632C5.78409 6.85292 5.72853 7.02276 5.68133 7.19358C5.59746 7.49707 5.52279 7.87229 5.45574 8.28855L5.44354 8.36531H4.69247C4.58052 8.36531 4.47498 8.41864 4.40707 8.50953C4.33917 8.6004 4.31668 8.71843 4.34625 8.82868L4.69576 10.1317C4.73848 10.291 4.88025 10.4014 5.04198 10.4014H5.19577C5.171 10.6561 5.14766 10.9134 5.12568 11.1698C4.9817 12.8503 4.89432 15.2893 4.84914 16H5.56853C5.6176 15.2205 5.70282 12.8453 5.8409 11.2338C5.86481 10.9547 5.89026 10.6758 5.91729 10.4014H7.77069C7.93194 10.4014 8.07341 10.2916 8.11657 10.1329L8.28724 9.50557H9.71308L9.88372 10.1329C9.92688 10.2916 10.0684 10.4014 10.2296 10.4014H12.083C12.11 10.6758 12.1355 10.9547 12.1594 11.2338C12.2975 12.8453 12.3827 15.2205 12.4318 16H13.1512C13.106 15.2893 13.0186 12.8503 12.8747 11.1698C12.8526 10.9134 12.8293 10.6561 12.8046 10.4014ZM7.03715 2.7408C7.02534 2.74403 7.01078 2.74863 6.99318 2.75519C6.78315 2.83343 6.58603 2.95732 6.43149 3.14815C6.27839 3.33718 6.15076 3.61189 6.1082 4.02023C6.03012 4.76949 6.07158 5.52148 6.3427 6.09876C6.3685 6.07297 6.39465 6.04715 6.42085 6.02162C6.57478 5.87161 6.7633 5.69879 6.9006 5.61226C6.90801 5.6076 6.91558 5.6032 6.92329 5.5991C7.11186 5.4988 7.34666 5.39079 7.53347 5.30805C7.24986 4.61812 7.18486 3.92284 7.13758 3.41698C7.13243 3.36192 7.12749 3.3091 7.1225 3.25878C7.10732 3.10555 7.09267 2.98151 7.07333 2.88087C7.06062 2.81468 7.04785 2.76997 7.03715 2.7408ZM7.83368 5.97417C7.65295 6.05401 7.43656 6.15352 7.26837 6.24217C7.20121 6.28739 7.06934 6.40302 6.91654 6.55194C6.764 6.70059 6.62134 6.85195 6.5539 6.93116C6.51942 6.97166 6.45092 7.10812 6.3723 7.39266C6.30136 7.64934 6.23408 7.97968 6.17102 8.36531H8.12218C8.23392 8.36531 8.33928 8.41844 8.40721 8.50904C8.46392 8.58467 8.48914 8.67923 8.47894 8.77249H9.52138C9.51118 8.67923 9.5364 8.58467 9.59311 8.50904C9.66104 8.41844 9.7664 8.36531 9.87812 8.36531H11.8293C11.7662 7.97968 11.699 7.64934 11.628 7.39266C11.5494 7.10812 11.4809 6.97166 11.4464 6.93116C11.379 6.85195 11.2363 6.70059 11.0837 6.55194C10.931 6.40302 10.7991 6.28738 10.732 6.24217L9.81644 5.82276C9.79793 5.81445 9.57526 5.72057 9.00016 5.69697C8.42506 5.72057 8.20239 5.81445 8.18385 5.82276C8.06761 5.87436 7.95002 5.92278 7.83368 5.97417ZM10.4668 5.30805C10.6536 5.39079 10.8884 5.4988 11.0771 5.5991C11.0848 5.6032 11.0923 5.6076 11.0997 5.61226C11.237 5.69879 11.4256 5.87161 11.5795 6.02162C11.6056 6.04715 11.6318 6.07297 11.6576 6.09876C11.9287 5.52148 11.9702 4.76949 11.8921 4.02023C11.8495 3.61189 11.7219 3.33718 11.5688 3.14815C11.4143 2.95732 11.2171 2.83343 11.0071 2.75519C10.9896 2.74863 10.975 2.74403 10.9632 2.7408C10.9525 2.76997 10.9397 2.81468 10.9269 2.88087C10.9077 2.98151 10.893 3.10555 10.8778 3.25878C10.8728 3.3091 10.8679 3.36192 10.8628 3.41699C10.8155 3.92285 10.7505 4.61812 10.4668 5.30805Z" fill="black"/>
</svg>
