<svg width="18" height="18" viewBox="0 0 18 18" fill="none" xmlns="http://www.w3.org/2000/svg">
<path fill-rule="evenodd" clip-rule="evenodd" d="M10.4666 9.60149H10.6022C10.7447 9.60149 10.8697 9.50415 10.9074 9.36376L11.2154 8.21528C11.2415 8.1181 11.2217 8.01407 11.1618 7.93397C11.102 7.85386 11.0089 7.80686 10.9103 7.80686H10.2482L10.2375 7.73919C10.1784 7.37229 10.1126 7.04156 10.0386 6.77406C9.99704 6.62349 9.94807 6.47379 9.88703 6.34457C10.3371 5.62655 10.373 4.6896 10.2917 3.90861C10.2426 3.43796 10.0884 3.07226 9.86511 2.79652C9.64307 2.52235 9.36698 2.35465 9.09922 2.25491C8.96417 2.2046 8.81133 2.17487 8.6587 2.21491C8.49332 2.25829 8.3821 2.36872 8.31234 2.48973C8.2478 2.60172 8.21328 2.73087 8.19071 2.84831C8.16753 2.96897 8.15227 3.1043 8.13875 3.24077C8.1344 3.28467 8.13013 3.32932 8.12581 3.37463C8.08148 3.83876 8.03046 4.37305 7.81191 4.88834C7.65509 4.85334 7.43288 4.82072 7.1267 4.80879C7.12223 4.80861 7.11777 4.80853 7.11333 4.80855C7.1089 4.80853 7.10444 4.80861 7.09996 4.80879C6.79379 4.82072 6.57157 4.85334 6.41476 4.88834C6.1962 4.37305 6.1452 3.83892 6.10088 3.37479L6.10079 3.37384C6.09648 3.3288 6.09224 3.28441 6.08792 3.24077C6.0744 3.1043 6.05914 2.96897 6.03596 2.84831C6.01339 2.73087 5.97887 2.60172 5.91432 2.48973C5.84457 2.36872 5.73335 2.25829 5.56797 2.21491C5.41533 2.17487 5.2625 2.2046 5.12744 2.25491C4.85969 2.35465 4.58359 2.52235 4.36155 2.79652C4.13824 3.07226 3.98406 3.43796 3.93501 3.90861C3.85363 4.6896 3.88958 5.62655 4.33963 6.34457C4.2786 6.47379 4.22963 6.62349 4.18802 6.77406C4.1141 7.04156 4.04827 7.37229 3.98918 7.73919L3.97842 7.80686H3.31641C3.21774 7.80686 3.12471 7.85386 3.06486 7.93397C3.005 8.01407 2.98518 8.1181 3.01124 8.21528L3.31931 9.36376C3.35697 9.50415 3.48192 9.60149 3.62448 9.60149H3.76003C3.7382 9.82604 3.71763 10.0528 3.69826 10.2789C3.60918 11.3185 3.54468 12.6876 3.50037 13.628C3.48155 14.0274 3.46638 14.3495 3.45451 14.5363H4.0886C4.10188 14.3253 4.11817 13.9816 4.13789 13.5655C4.18238 12.6268 4.24434 11.3194 4.32867 10.3352C4.34975 10.0892 4.37218 9.84341 4.39601 9.60149H6.02964C6.17178 9.60149 6.29647 9.50472 6.33451 9.36488L6.48494 8.81191H7.11205L7.11333 8.81191L7.11462 8.81191H7.74172L7.89216 9.36488C7.9302 9.50472 8.05489 9.60149 8.19702 9.60149H9.83066C9.85449 9.84341 9.87692 10.0892 9.89799 10.3352C9.90659 10.4356 9.91496 10.5393 9.9231 10.6457C10.0656 10.3885 10.2766 10.1776 10.5051 10.013C10.4927 9.87542 10.4799 9.73804 10.4666 9.60149ZM5.38308 2.84925C5.37267 2.8521 5.35984 2.85616 5.34433 2.86194C5.1592 2.9309 4.98545 3.0401 4.84923 3.2083C4.71429 3.37492 4.60179 3.61705 4.56428 3.97698C4.49546 4.63739 4.532 5.30022 4.77097 5.80905C4.79372 5.78632 4.81676 5.76357 4.83985 5.74106C4.97553 5.60884 5.1417 5.45651 5.26272 5.38024C5.26925 5.37613 5.27592 5.37226 5.28272 5.36864C5.44893 5.28024 5.65589 5.18503 5.82056 5.1121C5.57057 4.50397 5.51328 3.89114 5.4716 3.44527L5.38308 2.84925ZM6.08517 5.69924C5.92586 5.76961 5.73513 5.85732 5.58688 5.93546C5.52769 5.97532 5.41146 6.07724 5.27677 6.2085C5.14232 6.33953 5.01657 6.47294 4.95713 6.54275C4.92674 6.57845 4.86636 6.69873 4.79706 6.94953C4.73454 7.17578 4.67523 7.46695 4.61965 7.80686H6.33945C6.43795 7.80686 6.53082 7.85369 6.59069 7.93354C6.64068 8.00021 6.6629 8.08355 6.65392 8.16576H7.11205L7.11333 8.16576L7.11462 8.16576H7.57275C7.56377 8.08355 7.58599 8.00021 7.63598 7.93354C7.69585 7.85369 7.78872 7.80686 7.88721 7.80686H9.60702C9.55144 7.46695 9.49213 7.17578 9.42961 6.94953C9.3603 6.69873 9.29992 6.57845 9.26953 6.54275C9.2101 6.47294 9.08435 6.33953 8.9499 6.2085C8.81521 6.07724 8.69898 5.97531 8.63978 5.93546L7.83285 5.56578C7.8165 5.55845 7.62024 5.47571 7.11333 5.45491C6.60643 5.47571 6.41016 5.55845 6.39382 5.56578C6.34086 5.58929 6.28759 5.61204 6.23432 5.6348C6.18452 5.65607 6.13471 5.67736 6.08517 5.69924ZM8.40611 5.1121C8.57078 5.18503 8.77773 5.28024 8.94394 5.36864C8.95075 5.37226 8.95742 5.37613 8.96394 5.38024C9.08497 5.45651 9.25114 5.60884 9.38681 5.74106C9.4099 5.76356 9.43295 5.78633 9.4557 5.80905C9.69467 5.30023 9.73121 4.6374 9.66239 3.97698C9.62488 3.61705 9.51238 3.37492 9.37744 3.2083C9.24122 3.0401 9.06747 2.9309 8.88234 2.86194C8.86682 2.85616 8.85399 2.8521 8.84359 2.84925C8.83416 2.87496 8.8229 2.91437 8.81169 2.97271C8.79465 3.06142 8.78174 3.17075 8.76835 3.30582C8.764 3.34972 8.7597 3.39578 8.75521 3.44377L8.75511 3.44481C8.71343 3.89069 8.6561 4.50397 8.40611 5.1121Z" fill="black"/>
<path d="M7.04884 9.99625C6.96972 9.99625 6.86296 10.0187 6.77542 10.1062C6.69071 10.1909 6.6678 10.293 6.66282 10.3591C6.65397 10.4769 6.69329 10.5881 6.71522 10.6447C6.74129 10.712 6.77301 10.7749 6.79692 10.8194V11.6066C6.72509 11.5896 6.66496 11.5686 6.61688 11.5483C6.56311 11.5256 6.52417 11.5038 6.50079 11.4893C6.48912 11.4821 6.4814 11.4768 6.47773 11.4741L6.47573 11.4727C6.33889 11.365 6.14223 11.3893 6.0346 11.528C5.92609 11.6678 5.94916 11.871 6.08613 11.9818L6.08705 11.9826L6.08809 11.9834L6.09052 11.9853L6.09676 11.9902C6.10153 11.9938 6.10753 11.9983 6.11474 12.0034C6.12917 12.0137 6.14852 12.0269 6.17268 12.0418C6.22098 12.0717 6.28882 12.1091 6.37546 12.1456C6.54923 12.2188 6.79784 12.2884 7.11333 12.2884C7.42883 12.2884 7.67743 12.2188 7.8512 12.1456C7.93785 12.1091 8.00569 12.0717 8.05399 12.0418C8.07815 12.0269 8.09749 12.0137 8.11192 12.0034C8.11914 11.9983 8.12514 11.9938 8.12991 11.9902L8.13615 11.9853L8.13857 11.9834L8.13961 11.9826L8.14032 11.982C8.27729 11.8712 8.30058 11.6678 8.19206 11.528C8.08443 11.3893 7.88779 11.365 7.75094 11.4727L7.74607 11.4747L7.74839 11.4747C7.74443 11.4775 7.73675 11.4826 7.72587 11.4893C7.7025 11.5038 7.66356 11.5256 7.60979 11.5483C7.5617 11.5686 7.50157 11.5896 7.42974 11.6066V10.8194C7.45366 10.7749 7.48538 10.712 7.51145 10.6447C7.53338 10.5881 7.5727 10.4769 7.56384 10.3591C7.55887 10.293 7.53595 10.1909 7.45125 10.1062C7.36371 10.0187 7.25695 9.99625 7.17783 9.99625H7.04884Z" fill="black"/>
<path fill-rule="evenodd" clip-rule="evenodd" d="M11.8749 10.1049C12.2597 10.0246 12.6789 10.0042 13.0825 10.0446C13.4848 10.0849 13.8681 10.1854 14.1812 10.3432C14.4887 10.4981 14.7521 10.7213 14.8679 11.0145C14.9923 11.3296 14.9162 11.6482 14.7061 11.9037C14.583 12.0534 14.4179 12.1787 14.2275 12.2804C14.4179 12.3821 14.583 12.5075 14.7061 12.6572C14.9162 12.9127 14.9923 13.2312 14.8679 13.5463C14.7521 13.8396 14.4887 14.0627 14.1812 14.2177C13.8681 14.3754 13.4848 14.4759 13.0825 14.5162C12.6789 14.5567 12.2597 14.5363 11.8749 14.4559C11.493 14.3763 11.1427 14.237 10.8803 14.0392C10.6183 13.8416 10.4238 13.5667 10.4238 13.237C10.4238 13.0477 10.582 12.8943 10.777 12.8943C10.9721 12.8943 11.1303 13.0477 11.1303 13.237C11.1303 13.2858 11.1585 13.3807 11.3138 13.4978C11.4687 13.6146 11.7114 13.7206 12.0234 13.7857C12.3325 13.8502 12.6769 13.8677 13.0099 13.8343C13.3442 13.8008 13.6376 13.7191 13.8556 13.6092C14.0792 13.4966 14.1775 13.3789 14.2082 13.301C14.2303 13.245 14.2313 13.1788 14.1539 13.0847C14.0662 12.9781 13.8901 12.8581 13.6149 12.7655C13.3446 12.6745 13.0172 12.6232 12.6758 12.6232C12.4807 12.6232 12.3226 12.4697 12.3226 12.2804C12.3226 12.0911 12.4807 11.9376 12.6758 11.9376C13.0172 11.9376 13.3446 11.8864 13.6149 11.7954C13.8901 11.7027 14.0662 11.5828 14.1539 11.4761C14.2313 11.382 14.2303 11.3158 14.2082 11.2598C14.1775 11.182 14.0792 11.0642 13.8556 10.9516C13.6376 10.8418 13.3442 10.76 13.0099 10.7265C12.6769 10.6932 12.3325 10.7106 12.0234 10.7751C11.7114 10.8402 11.4687 10.9462 11.3138 11.063C11.1585 11.1801 11.1303 11.2751 11.1303 11.3238C11.1303 11.5131 10.9721 11.6666 10.777 11.6666C10.582 11.6666 10.4238 11.5131 10.4238 11.3238C10.4238 10.9941 10.6183 10.7192 10.8803 10.5217C11.1427 10.3239 11.493 10.1846 11.8749 10.1049Z" fill="black"/>
</svg>
