<svg width="18" height="18" viewBox="0 0 18 18" fill="none" xmlns="http://www.w3.org/2000/svg">
<path fill-rule="evenodd" clip-rule="evenodd" d="M12.7124 10.7158C12.3125 10.7158 11.9468 10.7995 11.693 10.9319C11.4418 11.063 11.3401 11.218 11.3401 11.3525C11.3401 11.5283 11.1353 11.6708 10.8827 11.6708C10.6301 11.6708 10.4253 11.5283 10.4253 11.3525C10.4253 10.9803 10.7091 10.6495 11.1442 10.4225C11.5767 10.1967 12.1418 10.0791 12.7124 10.0791C13.283 10.0791 13.848 10.1967 14.2806 10.4225C14.7156 10.6495 14.9995 10.9803 14.9995 11.3525C14.9995 11.5841 14.8489 11.8039 14.6916 11.976C14.5275 12.1556 14.3175 12.3246 14.1214 12.4631L14.1151 12.4675L12.0065 13.8995H14.542C14.7947 13.8995 14.9995 14.042 14.9995 14.2179C14.9995 14.3937 14.7947 14.5362 14.542 14.5362H10.8827C10.6967 14.5362 10.5292 14.4578 10.4591 14.3379C10.3889 14.218 10.4301 14.0804 10.5633 13.99L13.4728 12.014C13.6406 11.8952 13.8025 11.7625 13.9197 11.6343C14.0444 11.4979 14.0846 11.403 14.0846 11.3525C14.0846 11.218 13.9829 11.063 13.7317 10.9319C13.478 10.7995 13.1123 10.7158 12.7124 10.7158Z" fill="black"/>
<path fill-rule="evenodd" clip-rule="evenodd" d="M10.4684 9.60028H10.6039C10.7465 9.60028 10.8715 9.50291 10.9092 9.36249L11.2173 8.21375C11.2434 8.11655 11.2236 8.01249 11.1637 7.93237C11.1038 7.85224 11.0108 7.80523 10.9121 7.80523H10.2499L10.2392 7.73755C10.1801 7.37056 10.1142 7.03975 10.0403 6.77219C9.99866 6.62159 9.94968 6.47186 9.88863 6.3426C10.3388 5.62441 10.3747 4.68725 10.2933 3.90607C10.2443 3.43532 10.0901 3.06954 9.8667 2.79373C9.64461 2.5195 9.36845 2.35176 9.10063 2.25199C8.96555 2.20167 8.81268 2.17193 8.66001 2.21198C8.49459 2.25537 8.38334 2.36583 8.31357 2.48687C8.24901 2.59888 8.21448 2.72806 8.19191 2.84553C8.16872 2.96622 8.15346 3.10158 8.13994 3.23808C8.13559 3.28199 8.13132 3.32665 8.12699 3.37197C8.08266 3.83621 8.03163 4.37063 7.81303 4.88603C7.65617 4.85102 7.43391 4.8184 7.12766 4.80646C7.12318 4.80629 7.11872 4.80621 7.11429 4.80623C7.10985 4.80621 7.10539 4.80629 7.10091 4.80646C6.79467 4.8184 6.5724 4.85102 6.41555 4.88603C6.19694 4.37063 6.14593 3.83637 6.10159 3.37213L6.1015 3.37118C6.0972 3.32613 6.09296 3.28173 6.08863 3.23808C6.07511 3.10158 6.05985 2.96622 6.03666 2.84553C6.01409 2.72806 5.97956 2.59888 5.915 2.48687C5.84523 2.36583 5.73398 2.25537 5.56856 2.21198C5.41589 2.17193 5.26302 2.20167 5.12794 2.25199C4.86012 2.35176 4.58396 2.5195 4.36187 2.79373C4.1385 3.06954 3.98429 3.43532 3.93523 3.90607C3.85382 4.68725 3.88979 5.62441 4.33994 6.3426C4.27889 6.47185 4.22991 6.62159 4.18829 6.77219C4.11436 7.03975 4.04852 7.37056 3.98941 7.73755L3.97865 7.80523H3.31649C3.21779 7.80523 3.12474 7.85224 3.06487 7.93237C3.005 8.01249 2.98517 8.11655 3.01125 8.21375L3.31939 9.36249C3.35705 9.50291 3.48204 9.60028 3.62463 9.60028H3.76021C3.73837 9.82488 3.7178 10.0517 3.69842 10.2778C3.60932 11.3177 3.54481 12.6871 3.50049 13.6277C3.48166 14.0272 3.46648 14.3494 3.45461 14.5362H4.08885C4.10213 14.3252 4.11843 13.9814 4.13815 13.5652C4.18265 12.6263 4.24463 11.3186 4.32898 10.3342C4.35006 10.0881 4.37249 9.84225 4.39633 9.60028H6.03034C6.17251 9.60028 6.29723 9.50348 6.33528 9.36361L6.48575 8.81052H7.113L7.11429 8.81051L7.11557 8.81052H7.74282L7.89329 9.36361C7.93134 9.50348 8.05606 9.60028 8.19823 9.60028H9.83224C9.85608 9.84225 9.87851 10.0881 9.89959 10.3342C9.90819 10.4345 9.91656 10.5383 9.9247 10.6447C10.0672 10.3875 10.2782 10.1765 10.5068 10.0118C10.4945 9.87427 10.4816 9.73686 10.4684 9.60028ZM5.38363 2.84647C5.37322 2.84932 5.36039 2.85338 5.34487 2.85916C5.1597 2.92814 4.98591 3.03736 4.84966 3.2056C4.71469 3.37226 4.60216 3.61445 4.56464 3.97446C4.4958 4.63503 4.53235 5.29801 4.77138 5.80695C4.79413 5.78422 4.81718 5.76146 4.84028 5.73896C4.97599 5.6067 5.14219 5.45433 5.26325 5.37805C5.26978 5.37393 5.27645 5.37006 5.28325 5.36644C5.4495 5.27802 5.6565 5.18279 5.82121 5.10985C5.57116 4.50158 5.51386 3.88861 5.47217 3.44262L5.38363 2.84647ZM6.08588 5.69712C5.92654 5.7675 5.73576 5.85523 5.58748 5.9334C5.52827 5.97326 5.41202 6.07521 5.2773 6.20649C5.14281 6.33756 5.01703 6.47099 4.95759 6.54083C4.92719 6.57654 4.8668 6.69685 4.79748 6.9477C4.73494 7.17401 4.67562 7.46524 4.62002 7.80523H6.34023C6.43874 7.80523 6.53164 7.85207 6.59152 7.93194C6.64152 7.99862 6.66375 8.08198 6.65476 8.16421H7.113L7.11429 8.16421L7.11557 8.16421H7.57381C7.56482 8.08198 7.58705 7.99862 7.63705 7.93194C7.69693 7.85207 7.78983 7.80523 7.88834 7.80523H9.60855C9.55295 7.46524 9.49363 7.17401 9.4311 6.9477C9.36178 6.69685 9.30138 6.57654 9.27099 6.54083C9.21154 6.47099 9.08576 6.33756 8.95127 6.20649C8.81655 6.0752 8.7003 5.97326 8.64109 5.9334L7.83397 5.56363C7.81762 5.5563 7.62131 5.47354 7.11429 5.45273C6.60726 5.47354 6.41095 5.5563 6.3946 5.56363C6.34163 5.58714 6.28835 5.6099 6.23507 5.63267C6.18526 5.65395 6.13543 5.67523 6.08588 5.69712ZM8.40736 5.10985C8.57207 5.18279 8.77907 5.27802 8.94532 5.36644C8.95212 5.37006 8.9588 5.37393 8.96533 5.37805C9.08638 5.45433 9.25258 5.6067 9.38829 5.73896C9.41139 5.76146 9.43444 5.78423 9.45719 5.80696C9.69622 5.29801 9.73277 4.63503 9.66393 3.97446C9.62641 3.61445 9.51389 3.37226 9.37891 3.2056C9.24266 3.03736 9.06887 2.92814 8.8837 2.85916C8.86818 2.85338 8.85535 2.84932 8.84494 2.84647C8.83551 2.87219 8.82425 2.91161 8.81304 2.96996C8.79599 3.05869 8.78308 3.16804 8.76969 3.30314C8.76534 3.34706 8.76103 3.39312 8.75654 3.44113L8.75644 3.44217C8.71475 3.88815 8.65741 4.50158 8.40736 5.10985Z" fill="black"/>
<path d="M7.04977 9.99513C6.97063 9.99513 6.86385 10.0176 6.77629 10.1051C6.69157 10.1898 6.66864 10.2919 6.66367 10.3581C6.65482 10.4759 6.69415 10.5871 6.71608 10.6437C6.74215 10.711 6.77388 10.774 6.7978 10.8184V11.6058C6.72596 11.5888 6.66581 11.5678 6.61772 11.5475C6.56393 11.5249 6.52499 11.503 6.5016 11.4885C6.48993 11.4813 6.48221 11.476 6.47853 11.4733L6.47654 11.4719C6.33966 11.3642 6.14296 11.3885 6.03531 11.5272C5.92677 11.6671 5.94984 11.8703 6.08684 11.9812L6.08777 11.9819L6.08881 11.9828L6.09124 11.9847L6.09747 11.9895C6.10224 11.9931 6.10824 11.9976 6.11546 12.0028C6.1299 12.0131 6.14924 12.0262 6.17342 12.0412C6.22172 12.0711 6.28958 12.1084 6.37624 12.145C6.55006 12.2182 6.79872 12.2878 7.11429 12.2878C7.42985 12.2878 7.67851 12.2182 7.85233 12.145C7.93899 12.1084 8.00685 12.0711 8.05516 12.0412C8.07933 12.0262 8.09867 12.0131 8.11311 12.0028C8.12033 11.9976 8.12633 11.9931 8.1311 11.9895L8.13733 11.9847L8.13976 11.9828L8.1408 11.9819L8.14151 11.9814C8.27851 11.8705 8.30181 11.6671 8.19326 11.5272C8.08561 11.3885 7.88892 11.3641 7.75204 11.4719L7.74717 11.4739L7.74949 11.4739C7.74553 11.4767 7.73784 11.4818 7.72697 11.4885C7.70358 11.503 7.66464 11.5249 7.61086 11.5475C7.56276 11.5678 7.50262 11.5888 7.43077 11.6058V10.8184C7.45469 10.774 7.48642 10.711 7.51249 10.6437C7.53442 10.5871 7.57375 10.4759 7.5649 10.3581C7.55993 10.2919 7.537 10.1898 7.45228 10.1051C7.36472 10.0176 7.25794 9.99513 7.1788 9.99513H7.04977Z" fill="black"/>
</svg>
