<svg width="84" height="84" viewBox="0 0 84 84" fill="none" xmlns="http://www.w3.org/2000/svg">
<path d="M40.8486 8.28719C41.7126 7.87911 42.7209 7.90719 43.5605 8.36336L43.7373 8.46785L66.6289 23.0089C67.4672 23.5419 67.7152 24.6536 67.1826 25.4923C66.6498 26.3311 65.5371 26.5795 64.6982 26.047L42.1094 11.6964L14.5996 27.0753V54.5802L27.2637 38.8761C26.465 37.7167 25.9971 36.3122 25.9971 34.7979C25.9971 30.8223 29.2197 27.5997 33.1953 27.5997C36.9469 27.5998 40.0262 30.4696 40.3613 34.1339L52.1768 37.088C53.154 35.7029 54.7659 34.7981 56.5898 34.7979C59.5715 34.7979 61.9892 37.2147 61.9893 40.1964C61.9893 43.1781 59.5715 45.5948 56.5898 45.5948C53.7284 45.5946 51.3881 43.3687 51.2041 40.5538L39.7822 37.6983C39.2484 38.9088 38.3919 39.9434 37.3203 40.6944L41.4326 50.4132C44.2089 50.6367 46.3926 52.9593 46.3926 55.793C46.3926 58.7747 43.9749 61.1915 40.9932 61.1915C38.0116 61.1913 35.5947 58.7746 35.5947 55.793C35.5947 53.9527 36.5159 52.3282 37.9219 51.3536L33.9463 41.9561C33.6994 41.9817 33.449 41.9962 33.1953 41.9962C32.0405 41.9962 30.9497 41.7227 29.9824 41.2393L16.4893 57.9708L42.1289 72.3057L68.2529 56.4337C69.1022 55.918 70.2095 56.1882 70.7256 57.0372C71.2417 57.8865 70.9714 58.9947 70.1221 59.5108L43.7002 75.5645C42.8344 76.0903 41.7657 76.1412 40.8584 75.711L40.6797 75.6182L12.5361 59.8868C11.5878 59.3567 11 58.3541 11 57.2677V26.7237C11.0001 25.6373 11.5879 24.6356 12.5361 24.1055L40.665 8.38094L40.8486 8.28719ZM70.8584 26.7139C71.0257 26.2941 71.6198 26.2941 71.7871 26.7139L73.3115 30.5382C73.3655 30.6735 73.4755 30.7789 73.6133 30.8263L77.624 32.2042C78.0738 32.3589 78.0738 32.9957 77.624 33.1505L73.6133 34.5284C73.4757 34.5757 73.3655 34.6804 73.3115 34.8155L71.7871 38.6407C71.6198 39.0605 71.0258 39.0605 70.8584 38.6407L69.334 34.8155C69.28 34.6805 69.1697 34.5758 69.0322 34.5284L65.0215 33.1505C64.5715 32.9958 64.5715 32.3588 65.0215 32.2042L69.0322 30.8263C69.1698 30.7788 69.2801 30.6734 69.334 30.5382L70.8584 26.7139Z" fill="url(#paint0_linear_7_670)"/>
<defs>
<linearGradient id="paint0_linear_7_670" x1="42.0696" y1="9.07884" x2="42.0696" y2="73.734" gradientUnits="userSpaceOnUse">
<stop stop-color="#03D8DE"/>
<stop offset="1" stop-color="#D126F9"/>
</linearGradient>
</defs>
</svg>
