<svg width="18" height="18" viewBox="0 0 18 18" fill="none" xmlns="http://www.w3.org/2000/svg">
<path d="M3.1353 6.10304H6.68036V7.87246V7.87557H3.1353V6.10304Z" fill="#FFA302"/>
<path d="M3.1353 4.33203H4.90783V6.10456H3.1353V4.33203Z" fill="#FFCD00"/>
<path d="M10.2259 4.33203H11.9984V6.10456H10.2259V6.10304V4.33203Z" fill="#FFCD00"/>
<path d="M6.68168 9.64347H8.45421V9.64499V11.416H6.68168V9.64499V9.64347Z" fill="#FD4A00"/>
<path d="M3.1353 9.64347H4.90783V9.64499V11.416H3.1353V9.64347Z" fill="#FD4A00"/>
<path d="M3.1353 11.4145H4.90783V13.187H3.1353V11.4145Z" fill="#FF0107"/>
<path d="M7.56719 6.10304V7.87246H8.45486V6.1038L7.56719 6.10304Z" fill="#FBF8F0"/>
<path d="M5.794 9.64499V11.416H6.68168V9.64499H5.794Z" fill="#FBF8F0"/>
<path d="M2.25 4.33203V13.187H3.1353V11.416V11.4145V9.64499V9.64347V7.87557V7.87246V6.10456V6.10304V4.33203H2.25Z" fill="#FBF8F0"/>
<path d="M10.2259 4.33203H9.34038V6.10304H10.2259V4.33203Z" fill="#FBF8F0"/>
<path d="M9.34038 9.64499V13.187H10.2259V11.416V11.4145V9.64499H9.34038Z" fill="#FBF8F0"/>
<path d="M11.9984 6.10456H10.2259V6.10304L9.34038 6.10456L8.45486 6.1038V7.87246V7.87557H10.747C10.8239 7.62501 10.8997 7.36881 10.9649 7.13406C11.0628 6.78192 11.349 6.57522 11.8887 6.57522H11.998L11.9984 6.10456Z" fill="#FFA302"/>
<path d="M10.2259 9.64499V11.4145L11.9984 11.416V9.64499L10.2259 9.64347V9.64499Z" fill="#FD4A00"/>
<path d="M3.1353 7.87557V9.64347H4.90783V9.64499H5.794H6.68168V9.64347H8.45421V9.64499H9.34038H10.2259V9.64347L11.9984 9.64499V9.52634H11.2549C10.9415 9.52634 10.7316 9.36339 10.6133 9.16448C10.4984 8.97111 10.47 8.74374 10.5175 8.59903C10.5882 8.38324 10.6682 8.13237 10.747 7.87557H8.45486V7.87246H7.56719H6.68036V7.87557H3.1353Z" fill="#FF6F00"/>
<path d="M10.2259 11.416V13.187H11.7694L11.9984 12.361V11.416L10.2259 11.4145V11.416Z" fill="#FF0107"/>
<path d="M11.6921 7.33252L11.2505 8.77206H13.8049L12.0741 14.8325H13.5423L15.7505 7.33252H11.6921Z" fill="#FF6F00"/>
</svg>
