<svg width="18" height="18" viewBox="0 0 18 18" fill="none" xmlns="http://www.w3.org/2000/svg">
<path d="M7.94678 5.38818H10.0607V15.3203C10.0607 15.8824 9.59934 16.3437 9.0373 16.3437H8.97019C8.40815 16.3437 7.94678 15.8824 7.94678 15.3203V5.38818Z" fill="#F9AB00"/>
<path d="M9.00391 8.80231L13.5254 13.2986C13.7099 13.4832 14.0287 13.4077 14.1126 13.1644C14.5404 11.8977 14.2468 10.4549 13.2318 9.44824C12.0825 8.30738 10.3629 8.09767 9.00391 8.8107V8.80231Z" fill="#5BB974"/>
<path d="M9.00391 8.76886H16.151C16.4446 8.76886 16.6376 8.45848 16.5117 8.19844C15.849 6.85626 14.4733 5.94189 12.8795 5.94189C11.0675 5.94189 9.53239 7.13308 9.0123 8.77725H9.00391V8.76886Z" fill="#D773E1"/>
<path d="M9.01237 8.74332L14.0875 3.71853C14.2972 3.50881 14.2133 3.15649 13.9365 3.06421C12.5272 2.57767 10.8914 2.89644 9.75896 4.02052C8.46711 5.29559 8.21545 7.22498 9.00398 8.75171H9.01237V8.74332Z" fill="#FF8BCB"/>
<path d="M8.98728 8.76853L3.92894 3.72696C3.71922 3.51724 3.80311 3.16492 4.07993 3.07265C5.49761 2.5861 7.12501 2.91326 8.24908 4.03734C9.53255 5.3208 9.7842 7.2418 8.98728 8.77692V8.76853Z" fill="#FA7B17"/>
<path d="M8.98743 8.80231L4.46596 13.2986C4.28141 13.4832 3.96264 13.4077 3.87876 13.1644C3.45094 11.8977 3.74454 10.4549 4.75956 9.44824C5.90881 8.30738 7.62848 8.09767 8.98743 8.8107V8.80231Z" fill="#129EAF"/>
<path d="M8.98729 8.76886H1.84857C1.55497 8.76886 1.36203 8.45848 1.48786 8.19844C2.15056 6.85626 3.52629 5.94189 5.12014 5.94189C6.93208 5.94189 8.4672 7.13308 8.98729 8.77725V8.76886Z" fill="#4285F4"/>
</svg>
