<svg width="18" height="18" viewBox="0 0 18 18" fill="none" xmlns="http://www.w3.org/2000/svg">
<path fill-rule="evenodd" clip-rule="evenodd" d="M7.4354 3.22222C7.27578 3.22222 7.1227 3.28563 7.00983 3.3985C6.95612 3.45221 6.9136 3.51503 6.8838 3.58333H6.13339C6.18178 3.32166 6.30833 3.07862 6.49914 2.88781C6.74745 2.6395 7.08424 2.5 7.4354 2.5H10.8058C10.9015 2.5 10.9934 2.53805 11.0611 2.60577L13.4685 5.01317C13.5362 5.0809 13.5743 5.17275 13.5743 5.26852V9.07018C13.3537 8.88776 13.1111 8.73333 12.8521 8.61057V5.62963H11.2873C11.0638 5.62963 10.8495 5.54086 10.6915 5.38284C10.5334 5.22482 10.4447 5.01051 10.4447 4.78704V3.22222H7.4354ZM11.1669 3.73291L12.3414 4.90741H11.2873C11.2553 4.90741 11.2247 4.89473 11.2021 4.87215C11.1796 4.84958 11.1669 4.81896 11.1669 4.78704V3.73291Z" fill="black"/>
<path fill-rule="evenodd" clip-rule="evenodd" d="M10.3243 8.44076V7.07407C10.3243 6.9783 10.2862 6.88645 10.2185 6.81873L7.81112 4.41132C7.7434 4.3436 7.65155 4.30556 7.55577 4.30556H4.1854C3.83424 4.30556 3.49745 4.44506 3.24914 4.69337C3.00083 4.94168 2.86133 5.27846 2.86133 5.62963V12.3704C2.86133 12.7215 3.00083 13.0583 3.24914 13.3066C3.49745 13.5549 3.83424 13.6944 4.1854 13.6944H8.52483C8.38824 13.4956 8.27251 13.2826 8.17983 13.0587C8.16796 13.03 8.15649 13.0012 8.14541 12.9722H4.1854C4.02578 12.9722 3.8727 12.9088 3.75983 12.7959C3.64696 12.6831 3.58355 12.53 3.58355 12.3704V5.62963C3.58355 5.47001 3.64696 5.31693 3.75983 5.20406C3.8727 5.09119 4.02578 5.02778 4.1854 5.02778H7.19466V6.59259C7.19466 6.81606 7.28344 7.03038 7.44145 7.1884C7.59947 7.34641 7.81378 7.43518 8.03725 7.43518H9.60207V8.76616C9.7454 8.68059 9.89507 8.60533 10.05 8.54112C10.1401 8.50375 10.2316 8.47028 10.3243 8.44076ZM9.09138 6.71296L7.91688 5.53847V6.59259C7.91688 6.62452 7.92957 6.65513 7.95214 6.67771C7.97471 6.70028 8.00533 6.71296 8.03725 6.71296H9.09138Z" fill="black"/>
<path fill-rule="evenodd" clip-rule="evenodd" d="M10.3279 9.20824C10.6598 9.07076 11.0155 9 11.3748 9C11.734 9 12.0898 9.07076 12.4217 9.20824C12.7536 9.34572 13.0552 9.54723 13.3092 9.80126C13.5632 10.0553 13.7647 10.3569 13.9022 10.6888C14.0397 11.0207 14.1104 11.3764 14.1104 11.7357C14.1104 12.0949 14.0397 12.4507 13.9022 12.7826C13.811 13.0027 13.6917 13.2095 13.5475 13.3979L15.0323 14.8836C15.1733 15.0247 15.1732 15.2533 15.0322 15.3943C14.8911 15.5353 14.6624 15.5352 14.5215 15.3942L13.0368 13.9086C12.8485 14.0526 12.6417 14.1719 12.4217 14.2631C12.0898 14.4006 11.734 14.4713 11.3748 14.4713C11.0155 14.4713 10.6598 14.4006 10.3279 14.2631C9.99597 14.1256 9.69439 13.9241 9.44036 13.6701C9.18633 13.416 8.98483 13.1145 8.84735 12.7826C8.70987 12.4507 8.63911 12.0949 8.63911 11.7357C8.63911 11.3764 8.70987 11.0207 8.84735 10.6888C8.98483 10.3569 9.18633 10.0553 9.44036 9.80126C9.69439 9.54723 9.99597 9.34572 10.3279 9.20824ZM11.3748 9.72222C11.1104 9.72222 10.8485 9.7743 10.6043 9.87549C10.36 9.97667 10.138 10.125 9.95105 10.3119C9.76409 10.4989 9.61578 10.7209 9.51459 10.9652C9.41341 11.2094 9.36133 11.4713 9.36133 11.7357C9.36133 12.0001 9.41341 12.2619 9.51459 12.5062C9.61578 12.7505 9.76409 12.9724 9.95105 13.1594C10.138 13.3464 10.36 13.4947 10.6043 13.5958C10.8485 13.697 11.1104 13.7491 11.3748 13.7491C11.6392 13.7491 11.901 13.697 12.1453 13.5958C12.3896 13.4947 12.6115 13.3464 12.7985 13.1594C12.9855 12.9724 13.1338 12.7505 13.235 12.5062C13.3361 12.2619 13.3882 12.0001 13.3882 11.7357C13.3882 11.4713 13.3361 11.2094 13.235 10.9652C13.1338 10.7209 12.9855 10.4989 12.7985 10.3119C12.6115 10.125 12.3896 9.97667 12.1453 9.87549C11.901 9.7743 11.6392 9.72222 11.3748 9.72222Z" fill="black"/>
</svg>
